<mxfile host="65bd71144e">
    <diagram id="uHz4Q8-J_jif9KX5Zpy9" name="Page-1">
        <mxGraphModel dx="1568" dy="779" grid="1" gridSize="10" guides="1" tooltips="1" connect="1" arrows="1" fold="1" page="0" pageScale="1" pageWidth="850" pageHeight="1100" math="0" shadow="0">
            <root>
                <mxCell id="0"/>
                <mxCell id="1" parent="0"/>
                <mxCell id="2" value="Développement d'outils logiciels de test pour calculateurs de direction assistée" style="rounded=0;whiteSpace=wrap;html=1;spacing=16;fillColor=#a20025;strokeColor=#6F0000;fontColor=#ffffff;" vertex="1" parent="1">
                    <mxGeometry x="240" y="280" width="250" height="110" as="geometry"/>
                </mxCell>
                <mxCell id="3" value="1. Etudes" style="shape=process;whiteSpace=wrap;html=1;backgroundOutline=1;fillColor=#008a00;fontColor=#ffffff;strokeColor=#005700;" vertex="1" parent="1">
                    <mxGeometry x="-110" y="440" width="170" height="50" as="geometry"/>
                </mxCell>
                <mxCell id="4" value="2. Développement" style="shape=process;whiteSpace=wrap;html=1;backgroundOutline=1;fillColor=#008a00;fontColor=#ffffff;strokeColor=#005700;" vertex="1" parent="1">
                    <mxGeometry x="90" y="440" width="170" height="50" as="geometry"/>
                </mxCell>
                <mxCell id="5" value="3. Tests" style="shape=process;whiteSpace=wrap;html=1;backgroundOutline=1;fillColor=#008a00;fontColor=#ffffff;strokeColor=#005700;" vertex="1" parent="1">
                    <mxGeometry x="290" y="440" width="170" height="50" as="geometry"/>
                </mxCell>
                <mxCell id="6" value="4. Documentation" style="shape=process;whiteSpace=wrap;html=1;backgroundOutline=1;fillColor=#008a00;fontColor=#ffffff;strokeColor=#005700;" vertex="1" parent="1">
                    <mxGeometry x="480" y="440" width="170" height="50" as="geometry"/>
                </mxCell>
                <mxCell id="7" value="5. Gestion de projet" style="shape=process;whiteSpace=wrap;html=1;backgroundOutline=1;fillColor=#008a00;strokeColor=#005700;fontColor=#ffffff;" vertex="1" parent="1">
                    <mxGeometry x="670" y="440" width="170" height="50" as="geometry"/>
                </mxCell>
                <mxCell id="8" value="" style="rounded=0;whiteSpace=wrap;html=1;" vertex="1" parent="1">
                    <mxGeometry x="-80" y="520" width="120" height="60" as="geometry"/>
                </mxCell>
                <mxCell id="9" value="" style="rounded=0;whiteSpace=wrap;html=1;" vertex="1" parent="1">
                    <mxGeometry x="-80" y="610" width="120" height="60" as="geometry"/>
                </mxCell>
            </root>
        </mxGraphModel>
    </diagram>
</mxfile>